<?xml version="1.0" encoding="utf-8"?>
<!-- Generator: Adobe Illustrator 23.0.0, SVG Export Plug-In . SVG Version: 6.00 Build 0)  -->
<svg version="1.1" id="Layer_1" xmlns:svgjs="http://svgjs.com/svgjs"
	 xmlns="http://www.w3.org/2000/svg" xmlns:xlink="http://www.w3.org/1999/xlink" x="0px" y="0px" viewBox="0 0 512 512"
	 style="enable-background:new 0 0 512 512;" xml:space="preserve">
<style type="text/css">
	.st0{fill:#F65454;}
	.st1{fill:#FFFFFF;}
</style>
<circle class="st0" cx="256" cy="256" r="256"/>
<g transform="matrix(0.7,0,0,0.7,49.43419110774998,49.43445281982423)">
	<g>
		<path class="st1" d="M554.4,423.8L337.7,48.5c-7-12.2-20-19.6-34-19.6c-14,0-27,7.5-34,19.6L52.9,423.8c-7,12.2-7,27.1,0,39.3
			c7,12.2,20,19.6,34,19.6h433.4c14,0,27-7.5,34-19.6C561.4,451,561.4,436,554.4,423.8z M86.9,443.5L303.7,68.2l216.7,375.3H86.9z"
			/>
		<path class="st1" d="M276.5,203.4l11.3,128.9c0.7,7.6,6.7,13.8,14.5,14.5c8.8,0.8,16.5-5.7,17.3-14.5l11.3-128.9
			c0.1-1.5,0.1-3.2,0-4.7c-1.3-15-14.5-26.1-29.6-24.8C286.3,175.1,275.2,188.4,276.5,203.4z"/>
		<circle class="st1" cx="303.7" cy="377.4" r="22.5"/>
	</g>
</g>
</svg>
