<?xml version="1.0" encoding="utf-8"?>
<!-- Generator: Adobe Illustrator 23.0.0, SVG Export Plug-In . SVG Version: 6.00 Build 0)  -->
<svg version="1.1" id="Layer_1" xmlns:svgjs="http://svgjs.com/svgjs"
	 xmlns="http://www.w3.org/2000/svg" xmlns:xlink="http://www.w3.org/1999/xlink" x="0px" y="0px" viewBox="0 0 512 512"
	 style="enable-background:new 0 0 512 512;" xml:space="preserve">
<style type="text/css">
	.st0{fill:#FFFFFF;}
	.st1{fill:#0075FF;}
</style>
<circle class="st0" cx="256" cy="256" r="178"/>
<path class="st1" d="M256,0C114.6,0,0,114.6,0,256c0,141.4,114.6,256,256,256s256-114.6,256-256C512,114.6,397.4,0,256,0z M256,128
	c17.7,0,32,14.3,32,32c0,17.7-14.3,32-32,32s-32-14.3-32-32C224,142.3,238.3,128,256,128z M304,384h-96c-8.8,0-16-7.2-16-16
	c0-8.8,7.2-16,16-16h16v-96h-16c-8.8,0-16-7.2-16-16c0-8.8,7.2-16,16-16h64c8.8,0,16,7.2,16,16v112h16c8.8,0,16,7.2,16,16
	C320,376.8,312.8,384,304,384z"/>
</svg>
